<?xml version="1.0" encoding="UTF-8"?>
<svg width="59px" height="50px" viewBox="0 0 59 50" version="1.1" xmlns="http://www.w3.org/2000/svg" xmlns:xlink="http://www.w3.org/1999/xlink">
    <!-- Generator: Sketch 54.1 (76490) - https://sketchapp.com -->
    <title>icon-prices</title>
    <desc>Created with Sketch.</desc>
    <g id="landing" stroke="none" stroke-width="1" fill="none" fill-rule="evenodd">
        <g id="afiliados-instituciones" transform="translate(-240.000000, -4839.000000)" fill-rule="nonzero">
            <g id="por-qué" transform="translate(100.000000, 4450.000000)">
                <g id="2" transform="translate(0.000000, 388.000000)">
                    <g id="1">
                        <g id="icon-prices" transform="translate(139.000000, 0.000000)">
                            <path d="M17.35,43.47 C17.35,43.47 18.11,45.45 19.89,45.16 C21.67,44.87 24.97,32.99 24.97,32.99 L21.69,31.99 L17.35,43.46 L17.35,43.47 Z" id="Path" fill="#BC8779"></path>
                            <path d="M19.98,43.47 C19.98,43.47 20.74,45.45 22.52,45.16 C24.3,44.87 27.6,32.99 27.6,32.99 L24.32,31.99 L19.98,43.46 L19.98,43.47 Z" id="Path" fill="#BC8779"></path>
                            <g id="Group" transform="translate(17.000000, 0.000000)">
                                <rect id="Rectangle" fill="#98BF66" transform="translate(21.648946, 25.124178) rotate(-144.800000) translate(-21.648946, -25.124178) " x="11.7439457" y="2.29917766" width="19.81" height="45.65" rx="0.58"></rect>
                                <g transform="translate(5.000000, 6.000000)">
                                    <path d="M32.18,8.29 L21.64,0.85 C21.23,1.43 20.43,1.57 19.86,1.16 L0.8,28.19 C1.38,28.6 1.52,29.4 1.11,29.97 L11.65,37.41 C12.06,36.83 12.86,36.69 13.43,37.1 L32.49,10.07 C31.91,9.66 31.77,8.86 32.18,8.29 L32.18,8.29 Z" id="Path" fill="#C9ECA4"></path>
                                    <g transform="translate(11.000000, 13.000000)">
                                        <circle id="Oval" fill="#98BF66" cx="5.64" cy="6.13" r="5.31"></circle>
                                        <path d="M8.47,6.09 C8.54,6.5 8.46,6.93 8.23,7.38 L8.94,7.88 L8.48,8.54 L7.78,8.05 C7.56,8.32 7.31,8.55 7.05,8.73 C6.79,8.91 6.51,9.04 6.23,9.12 L5.82,8.41 C6.38,8.24 6.82,7.95 7.16,7.54 L5.82,6.6 C5.54,6.84 5.29,7.02 5.07,7.16 C4.84,7.3 4.6,7.37 4.33,7.38 C4.06,7.39 3.79,7.3 3.51,7.1 C3.28,6.94 3.11,6.73 3,6.48 C2.89,6.23 2.85,5.96 2.87,5.66 C2.89,5.36 2.98,5.07 3.13,4.77 L2.42,4.27 L2.88,3.61 L3.59,4.11 C3.8,3.88 4.02,3.69 4.26,3.54 C4.5,3.38 4.75,3.28 4.99,3.23 L5.4,3.94 C4.92,4.07 4.53,4.3 4.22,4.63 L5.62,5.61 C5.9,5.37 6.14,5.19 6.36,5.06 C6.58,4.93 6.81,4.86 7.07,4.85 C7.33,4.84 7.59,4.93 7.86,5.12 C8.21,5.37 8.41,5.69 8.48,6.1 L8.47,6.09 Z M4.51,6.33 C4.67,6.29 4.86,6.2 5.05,6.06 L3.81,5.18 C3.72,5.39 3.69,5.59 3.73,5.77 C3.77,5.95 3.87,6.1 4.04,6.22 C4.19,6.33 4.35,6.36 4.51,6.32 L4.51,6.33 Z M7.59,6.39 C7.55,6.22 7.45,6.08 7.28,5.96 C7.15,5.87 7.01,5.84 6.86,5.87 C6.71,5.91 6.55,6 6.36,6.14 L7.51,6.95 C7.6,6.74 7.62,6.55 7.58,6.39 L7.59,6.39 Z" id="Shape" fill="#C9ECA4"></path>
                                    </g>
                                </g>
                            </g>
                            <circle id="Oval" fill="#FDC199" cx="9.79" cy="42.2" r="5.38"></circle>
                            <path d="M7.3,37.32 C7.3,37.32 11.76,32.97 14.38,29.8 C17,26.63 18.22,25.36 18.22,25.36 C18.22,25.36 27.64,21.94 28.72,21.57 C28.91,21.51 29.48,20.96 29.48,20.96 L23.8,29.07 C23.8,29.07 22.78,35.47 22.38,37.14 C21.98,38.81 20.99,41.37 18.55,43.2 C17.41,44.06 15.97,44.39 15.03,45.01 C13.77,45.84 12.88,46.58 12.88,46.58 L7.28,37.32 L7.3,37.32 Z" id="Path" fill="#FDC199"></path>
                            <path d="M18.24,30.03 C18.24,30.03 28.25,27.25 29.27,27.12 C30.29,26.99 30.99,31.7 26.37,33.48 C21.75,35.26 21.08,35.98 21.08,35.98 C21.08,35.98 15.87,35.07 16.13,33.05 C16.39,31.03 18.23,30.03 18.23,30.03 L18.24,30.03 Z" id="Path" fill="#FDC199"></path>
                            <path d="M24.3,28.38 L18.24,30.03" id="Path" stroke="#BC8779" stroke-width="0.2" fill="#E2C6AA"></path>
                            <rect id="Rectangle" fill="#E6E6E6" transform="translate(10.101801, 42.745749) rotate(39.030000) translate(-10.101801, -42.745749) " x="3.71680148" y="40.5057487" width="12.77" height="4.48" rx="1.01"></rect>
                            <rect id="Rectangle" fill="#9FBCFB" transform="translate(8.335016, 44.324617) rotate(39.030000) translate(-8.335016, -44.324617) " x="0.820016184" y="41.2996172" width="15.03" height="6.05" rx="1.01"></rect>
                        </g>
                    </g>
                </g>
            </g>
        </g>
    </g>
</svg>