<?xml version="1.0" encoding="UTF-8"?>
<svg width="66px" height="50px" viewBox="0 0 66 50" version="1.1" xmlns="http://www.w3.org/2000/svg" xmlns:xlink="http://www.w3.org/1999/xlink">
    <!-- Generator: Sketch 54.1 (76490) - https://sketchapp.com -->
    <title>icon-courses</title>
    <desc>Created with Sketch.</desc>
    <g id="landing" stroke="none" stroke-width="1" fill="none" fill-rule="evenodd">
        <g id="afiliados-instituciones" transform="translate(-606.000000, -4546.000000)" fill="#619CFF" fill-rule="nonzero">
            <g id="por-qué" transform="translate(100.000000, 4450.000000)">
                <g id="1" transform="translate(0.000000, 96.000000)">
                    <g id="2" transform="translate(370.000000, 0.000000)">
                        <path d="M194.2,3.44 L194.2,37.436078 C196.413237,37.7525518 198.12,39.6606225 198.12,41.96 L198.12,48.14 L198.12,48.13 C198.12,48.72 197.72,49.23 197.14,49.37 C196.02,49.63 194.23,50.01 193.44,50.01 C192.7,50.01 191.02,49.64 189.95,49.38 C189.38,49.24 188.98,48.73 188.98,48.15 L188.98,41.96 C188.98,39.7374124 190.574669,37.8804318 192.68,37.4730654 L192.68,3.44 L188.97,3.44 L188.97,21.69 C188.97,22.97 188.18,24.11 186.98,24.55 L170,30.81 C169.32,31.06 168.57,31.06 167.89,30.81 L150.91,24.55 C149.72,24.11 148.92,22.97 148.92,21.69 L148.92,3.44 L137.72,3.44 C136.77007,3.44 136,2.66992977 136,1.72 C136,0.77007023 136.77007,-2.00109734e-13 137.72,-2.00284234e-13 L199.88,-2.00284234e-13 C200.82993,-1.96240197e-13 201.6,0.77007023 201.6,1.72 C201.6,2.66992977 200.82993,3.44 199.88,3.44 L194.2,3.44 Z" id="icon-courses"></path>
                    </g>
                </g>
            </g>
        </g>
    </g>
</svg>