<?xml version="1.0" encoding="UTF-8"?>
<svg width="69px" height="50px" viewBox="0 0 69 50" version="1.1" xmlns="http://www.w3.org/2000/svg" xmlns:xlink="http://www.w3.org/1999/xlink">
    <!-- Generator: Sketch 54.1 (76490) - https://sketchapp.com -->
    <title>icon-device</title>
    <desc>Created with Sketch.</desc>
    <g id="landing" stroke="none" stroke-width="1" fill="none" fill-rule="evenodd">
        <g id="afiliados-instituciones" transform="translate(-976.000000, -4838.000000)" fill-rule="nonzero">
            <g id="por-qué" transform="translate(100.000000, 4450.000000)">
                <g id="2" transform="translate(0.000000, 388.000000)">
                    <g id="3" transform="translate(740.000000, 0.000000)">
                        <g id="icon-device" transform="translate(136.000000, 0.000000)">
                            <g id="tableta">
                                <rect id="Rectangle" fill="#5E90FA" x="0.212195122" y="4.54747351e-13" width="64.7312195" height="49" rx="2.27586207"></rect>
                                <path d="M0.212195122,41.4655172 L64.9434146,41.4655172 L64.9434146,47.0434989 C64.9434146,48.3829484 63.9217073,49.4655172 62.657561,49.4655172 L2.49804878,49.4655172 C1.23390244,49.4655172 0.212195122,48.3829484 0.212195122,47.0434989 L0.212195122,47.0434989 L0.212195122,41.4655172 L0.212195122,41.4655172 L0.212195122,41.4655172 Z" id="Path" fill="#5E90FA"></path>
                                <rect id="Rectangle" fill="#5E90FA" x="3.46780488" y="3.65517241" width="58.22" height="34.1551724"></rect>
                                <path d="M33.7726829,45.6206897 C33.7726829,44.9655172 33.2358537,44.4310345 32.5778049,44.4310345 C31.9197561,44.4310345 31.3829268,44.9655172 31.3829268,45.6206897 C31.3829268,46.2758621 31.9197561,46.8103448 32.5778049,46.8103448 C33.2358537,46.8103448 33.7726829,46.2758621 33.7726829,45.6206897 L33.7726829,45.6206897 Z" id="Path" fill="#F3F5F9"></path>
                                <polygon id="Path" fill="#FFFFFF" points="13.040327 3.48275862 4.32853659 3.48275862 4.32853659 5.88983827 4.32853659 9.09337809 4.32853659 41.4827586 61.3285366 41.4827586 61.3285366 3.5712542"></polygon>
                            </g>
                            <g id="Group" transform="translate(49.219512, 15.517241)">
                                <path d="M19.2565854,2.22413793 L19.2565854,33.1896552 C19.2565854,33.9137931 18.5812195,34.4827586 17.7326829,34.4827586 L1.83560976,34.4827586 C1.00439024,34.4827586 0.311707317,33.8965517 0.311707317,33.1896552 L0.311707317,2.22413793 C0.311707317,1.5 0.987073171,0.931034483 1.83560976,0.931034483 L17.7326829,0.931034483 C18.5639024,0.931034483 19.2565854,1.51724138 19.2565854,2.22413793 Z" id="Path" fill="#858585"></path>
                                <path d="M18.46,3.53448276 L18.46,31.8965517 C18.46,32.5517241 17.8365854,33.0862069 17.0746341,33.0862069 L2.51097561,33.0862069 C1.74902439,33.0862069 1.12560976,32.5517241 1.12560976,31.8965517 L1.12560976,3.53448276 C1.12560976,2.87931034 1.74902439,2.34482759 2.51097561,2.34482759 L17.0746341,2.34482759 C17.8365854,2.34482759 18.46,2.87931034 18.46,3.53448276 Z" id="Path" fill="#EBEEF1"></path>
                                <path d="M18.8063415,29.4137931 L18.8063415,32.0862069 C18.8063415,32.9827586 18.1656098,33.7068966 17.3690244,33.7068966 L2.30317073,33.7068966 C1.50658537,33.7068966 0.865853659,32.9827586 0.865853659,32.0862069 L0.865853659,29.4137931 L18.8063415,29.4137931 Z" id="Path" fill="#858585"></path>
                                <ellipse id="Oval" fill="#FFFFFF" cx="10.1478049" cy="31.5689655" rx="1.48926829" ry="1.48275862"></ellipse>
                            </g>
                        </g>
                    </g>
                </g>
            </g>
        </g>
    </g>
</svg>