<?xml version="1.0" encoding="UTF-8"?>
<svg width="51px" height="50px" viewBox="0 0 51 50" version="1.1" xmlns="http://www.w3.org/2000/svg" xmlns:xlink="http://www.w3.org/1999/xlink">
    <!-- Generator: Sketch 54.1 (76490) - https://sketchapp.com -->
    <title>icon-countries</title>
    <desc>Created with Sketch.</desc>
    <g id="landing" stroke="none" stroke-width="1" fill="none" fill-rule="evenodd">
        <g id="afiliados-instituciones" transform="translate(-985.000000, -4546.000000)" fill-rule="nonzero">
            <g id="por-qué" transform="translate(100.000000, 4450.000000)">
                <g id="1" transform="translate(0.000000, 96.000000)">
                    <g id="3" transform="translate(740.000000, 0.000000)">
                        <g id="icon-countries" transform="translate(145.000000, 0.000000)">
                            <path d="M47.6,26.04 L47.57,26.06 C47.81,26.61 48.31,27.11 48.91,27.13 C49.29,27.12 49.66,26.96 49.92,26.68 C49.88,27.25 49.82,27.83 49.75,28.39 C49.56,29.83 49.24,31.25 48.8,32.63 C48.37,33.97 47.83,35.28 47.18,36.53 C46.73,37.38 46.23,38.21 45.68,39.01 C45.51,39.28 45.31,39.55 45.12,39.81 C44.74,40.32 44.35,40.83 43.93,41.31 C42.46,43.01 40.78,44.5 38.92,45.75 C38.21,46.23 37.47,46.67 36.71,47.08 C33.1,49 29.07,50 24.98,50 C20.47,50 16.04,48.78 12.16,46.46 C12.14,46.41 12.12,46.37 12.1,46.33 C11.54,45.12 11.52,43.38 12.7,42.78 C12.94,42.7 13.16,42.58 13.37,42.43 C13.9,41.93 13.46,40.9 13.99,40.4 C14.29,40.13 14.75,40.15 15.12,39.98 C15.78,39.67 16,38.82 15.94,38.1 C15.88,37.38 15.65,36.65 15.73,35.93 C15.85,34.83 16.71,33.72 16.22,32.73 C15.67,31.63 14.07,31.8 12.94,31.31 C11.36,30.62 10.88,28.66 9.85,27.28 C8.93,26.05 6.78,24.69 5.14,25.06 C3.95,25.33 3.54,26.04 3.42,26.91 L3.27,26.88 C2.83,26.84 2.31,26.81 2.07,26.45 C1.79,26.03 2.07,25.4 1.78,24.98 C1.63,24.76 1.36,24.66 1.15,24.51 C0.94,24.36 0.76,24.08 0.89,23.85 C0.99,23.66 1.27,23.62 1.41,23.44 C1.52,23.3 1.52,23.1 1.41,22.95 C0.96,22.41 0.46,23.5 0.21,23.76 C0.15,23.83 0.09,23.89 0.02,23.95 C0.04,23.43 0.08,22.9 0.13,22.4 C0.18,21.9 0.25,21.4 0.33,20.91 L0.27,20.91 C0.48,20.41 0.63,19.88 0.72,19.34 C0.85,18.75 1.05,18.12 1.51,17.72 C1.97,17.32 2.78,17.27 3.14,17.77 C3.4,18.13 3.34,18.61 3.27,19.05 C3.18,19.64 3.08,20.23 2.99,20.81 C2.94,20.99 2.95,21.17 3.01,21.34 C3.19,21.71 3.8,21.64 4.03,21.31 C4.26,20.98 4.24,20.52 4.17,20.12 C4.1,19.72 4.02,19.3 4.18,18.91 C4.57,17.97 5.97,18.11 6.79,17.5 C7.29,17.13 7.52,16.49 7.82,15.93 C8.12,15.37 8.63,14.81 9.26,14.84 C9.48,14.85 9.69,14.92 9.9,14.92 C10.53,14.89 10.89,13.98 10.45,13.54 C10.34,13.46 10.25,13.36 10.17,13.26 C10.08,13.04 10.16,12.78 10.36,12.64 C10.56,12.52 10.78,12.45 11.02,12.43 C11.55,12.35 12.08,12.26 12.62,12.18 C13.21,12.08 13.96,11.78 13.88,11.19 C13.81,10.68 13.11,10.45 13.01,9.94 C13,9.82 12.98,9.69 12.94,9.57 C12.77,9.25 12.28,9.38 11.97,9.55 C11.95,9.49 11.92,9.43 11.88,9.37 C11.63,9.02 11.15,8.93 10.8,9.17 C10.48,9.43 10.44,9.89 10.33,10.28 C10.07,11.23 9.31,11.95 8.59,12.62 C8.35,12.85 8.08,13.09 7.75,13.1 C7.42,13.11 7.08,12.76 7.23,12.47 C7.33,12.28 7.62,12.16 7.59,11.94 C7.55,11.67 7.06,11.68 6.97,11.42 C7.16,10.63 8.06,10.31 8.75,9.89 C9.6,9.38 10.24,8.59 10.57,7.66 C10.64,7.52 10.65,7.35 10.59,7.2 C10.49,7 10.23,6.97 10,6.97 C9.46,6.96 8.8,7.04 8.61,7.53 C8.51,7.79 8.58,8.09 8.52,8.37 C8.34,9.19 7.21,9.28 6.52,9.77 C6.26,9.96 6.07,10.22 5.75,10.37 C5.43,10.52 5.06,10.51 4.7,10.54 C4.64,10.54 4.57,10.56 4.51,10.56 C4.29,10.87 4.07,11.18 3.88,11.49 C4.08,11.17 4.29,10.86 4.51,10.56 C4.76,10.21 5.01,9.87 5.27,9.54 C5.59,9.15 5.9,8.77 6.24,8.4 C7.19,7.33 8.23,6.34 9.35,5.45 C9.54,5.3 9.71,5.16 9.94,4.99 C10.17,4.82 10.4,4.65 10.64,4.49 C10.83,4.36 11.03,4.23 11.22,4.1 C11.29,4.05 11.36,4 11.43,3.96 C11.61,3.84 11.8,3.73 11.99,3.61 C12.2,3.49 12.41,3.35 12.61,3.24 C12.81,3.13 13.01,3.02 13.21,2.9 L13.23,2.9 C13.44,2.79 13.68,2.68 13.87,2.58 C14.06,2.48 14.27,2.38 14.47,2.29 C14.72,2.18 14.96,2.07 15.21,1.97 C15.41,1.88 15.62,1.8 15.81,1.71 L15.85,1.71 C16.07,1.62 16.28,1.54 16.51,1.46 C16.52,1.46 16.53,1.46 16.53,1.46 L17.19,1.23 C17.47,1.15 17.74,1.06 18.02,0.98 C18.19,0.93 18.36,0.89 18.53,0.84 C18.7,0.79 18.87,0.75 19.04,0.71 C19.4,0.62 19.77,0.54 20.14,0.47 C20.29,0.44 20.42,0.43 20.6,0.39 C20.78,0.35 20.96,0.33 21.13,0.3 C21.3,0.27 21.49,0.24 21.66,0.22 C21.83,0.2 22.02,0.18 22.19,0.16 C22.36,0.14 22.53,0.12 22.71,0.11 C23.44,0.04 24.18,0.01 24.92,0.01 C25.2,0.01 25.49,0.02 25.76,0.03 C26.03,0.04 26.3,0.05 26.56,0.07 C26.82,0.09 27.08,0.1 27.33,0.13 C27.45,0.14 27.56,0.14 27.67,0.16 C27.72,0.17 27.77,0.18 27.81,0.18 C28.19,0.23 28.58,0.28 28.95,0.34 C29.04,0.35 29.13,0.36 29.22,0.38 C29.23,0.38 29.25,0.38 29.26,0.38 C29.47,0.41 29.67,0.45 29.87,0.49 L29.9,0.49 C30.42,0.6 30.95,0.72 31.46,0.86 C31.71,0.93 31.97,1 32.23,1.08 C32.49,1.16 32.75,1.25 33,1.33 C33.25,1.41 33.52,1.52 33.75,1.6 C33.98,1.68 34.23,1.78 34.42,1.86 C34.61,1.94 34.81,2.03 35,2.11 C35.14,2.17 35.28,2.24 35.41,2.3 C35.44,2.31 35.46,2.32 35.48,2.33 C35.63,2.39 35.81,2.49 35.93,2.54 C36.05,2.59 36.16,2.65 36.28,2.71 C36.51,2.83 36.73,2.95 36.96,3.08 C37.01,3.11 37.07,3.14 37.12,3.17 C37.23,3.23 37.31,3.28 37.44,3.35 C37.57,3.42 37.7,3.5 37.83,3.58 C37.96,3.66 38.09,3.74 38.22,3.82 C38.35,3.9 38.48,3.99 38.61,4.07 C38.74,4.15 38.86,4.23 38.99,4.32 C39.5,4.66 39.99,5.02 40.47,5.41 C40.64,5.55 40.82,5.71 40.96,5.83 C41.1,5.95 41.23,6.07 41.37,6.18 C41.51,6.29 41.63,6.4 41.78,6.54 C41.93,6.68 42.09,6.81 42.23,6.96 C42.41,7.12 42.58,7.3 42.75,7.47 C42.85,7.57 42.96,7.68 43.06,7.79 C43.09,7.83 43.13,7.86 43.16,7.9 C43.17,7.91 43.19,7.92 43.19,7.94 C43.31,8.07 43.43,8.19 43.55,8.33 C43.59,8.37 43.66,8.45 43.66,8.45 L43.99,8.84 C44.11,8.96 44.21,9.1 44.3,9.21 C44.39,9.32 44.48,9.43 44.57,9.54 C44.69,9.7 44.82,9.86 44.94,10.03 C45.09,10.23 45.24,10.44 45.39,10.65 C45.51,10.81 45.62,10.98 45.73,11.15 C45.9,11.42 46.08,11.69 46.25,11.97 C47.05,13.27 47.73,14.64 48.27,16.07 C48.3,16.13 48.32,16.19 48.34,16.25 C48.21,16.01 48.08,15.78 47.93,15.55 C46.55,13.35 44.53,11.62 43,9.52 C42.5,8.83 42.11,8.26 41.23,8.13 C39.92,7.92 39.26,8.67 38.33,7.43 C38.08,7.1 37.65,6.8 37.28,6.99 C37.38,7.26 37.48,7.52 37.57,7.79 C37.6,7.85 37.6,7.91 37.6,7.97 C37.58,8.15 37.31,8.2 37.15,8.1 C37.01,7.97 36.89,7.82 36.8,7.65 C36.78,7.62 36.75,7.6 36.73,7.57 C36.25,7.05 35.44,7.02 34.92,7.5 C34.89,7.25 34.73,7.03 34.5,6.92 C34.5,6.96 34.48,6.99 34.48,7.02 C34.36,7.47 33.89,7.74 33.43,7.61 C33.36,7.37 33.8,7.31 33.94,7.12 C34.08,6.93 33.92,6.66 33.74,6.5 C33.26,6.09 32.65,5.85 32.02,5.83 C31.61,5.82 31.19,5.89 30.84,5.69 C30.64,5.57 30.49,5.38 30.29,5.26 C29.85,5.01 29.3,5.24 28.86,5.49 C28.26,5.82 27.63,6.26 27.42,6.91 C27.21,7.56 27.68,8.45 28.37,8.37 C28.54,8.31 28.72,8.29 28.9,8.31 C29.14,8.37 29.24,8.66 29.27,8.91 C29.3,9.16 29.27,9.43 29.39,9.65 C29.51,9.87 29.87,9.98 30.01,9.77 C30.33,9.47 30.29,8.93 30.21,8.5 C30.13,8.07 30.03,7.58 30.3,7.21 C30.57,6.84 31.32,6.96 31.27,7.4 C31.23,7.66 30.94,7.85 30.95,8.12 C30.96,8.39 31.29,8.53 31.56,8.52 C31.83,8.51 32.09,8.42 32.36,8.48 C32.63,8.54 32.84,8.89 32.65,9.08 C32.32,9.44 31.47,8.81 31.3,9.27 C31.25,9.4 31.3,9.53 31.29,9.66 C31.25,10.05 30.78,10.19 30.38,10.24 C29.98,10.29 29.57,10.34 29.22,10.16 C28.87,9.98 28.64,9.52 28.83,9.19 C28.64,9.05 28.34,9.19 28.23,9.41 C28.15,9.64 28.13,9.89 28.19,10.13 C27.78,10.04 27.41,10.38 27.18,10.73 C26.95,11.08 26.72,11.48 26.32,11.61 C25.92,11.74 25.37,11.57 25.16,11.93 C24.89,12.41 25.68,13.01 25.4,13.48 C25.24,13.74 24.86,13.74 24.56,13.82 C23.77,14.05 23.49,15.2 24.03,15.83 C24.57,16.46 25.65,16.43 26.23,15.83 C26.63,15.42 26.79,14.84 27.08,14.36 C27.37,13.88 27.92,13.43 28.46,13.59 C28.67,13.67 28.87,13.79 29.03,13.95 C29.3,14.17 29.57,14.39 29.83,14.62 C30,14.76 30.19,14.94 30.17,15.16 C30.15,15.33 30.02,15.47 29.96,15.64 C29.8,16.12 30.49,16.57 30.93,16.31 C31.37,16.05 31.42,15.38 31.12,14.97 C30.71,14.4 29.78,14.11 29.8,13.41 C30.27,13.02 31.02,13.45 31.3,13.99 C31.58,14.53 31.59,15.18 31.82,15.75 C32.05,16.32 32.71,16.83 33.25,16.55 C33.11,16.06 32.97,15.58 32.83,15.09 C33.17,14.83 33.57,15.59 33.99,15.46 C34.25,15.38 34.27,15.01 34.17,14.77 C34.07,14.53 33.87,14.32 33.82,14.06 C33.74,13.57 34.28,13.14 34.77,13.22 C35.26,13.3 35.61,13.76 35.7,14.24 C35.72,14.44 35.76,14.63 35.83,14.81 C36.02,15.19 36.49,15.3 36.88,15.47 C37.27,15.64 37.67,16.02 37.51,16.41 C37.43,16.58 37.26,16.76 37.32,16.92 C37.38,17.08 37.61,17.14 37.61,17.31 C37.61,17.42 37.49,17.5 37.39,17.54 C37.13,17.64 36.84,17.68 36.59,17.8 C36.33,17.9 36.14,18.15 36.13,18.44 C36.16,18.83 36.63,19.04 36.85,19.35 C37.07,19.66 37.04,20.1 37.17,20.43 C37.3,20.76 37.56,21.02 37.77,21.3 C38.42,22.2 38.58,23.35 38.9,24.41 C39.04,24.89 39.3,25.42 39.79,25.51 C40.06,25.54 40.34,25.48 40.58,25.36 C41.28,25.08 42.02,24.78 42.51,24.2 C43,23.62 43.17,22.69 42.66,22.12 C42.6,22.05 42.52,21.99 42.42,21.97 C42.29,21.98 42.16,22.02 42.05,22.1 C41.69,22.26 41.25,22.12 40.95,21.86 C40.67,21.57 40.44,21.24 40.29,20.87 C40.1,20.48 39.9,20.09 39.71,19.69 C39.95,19.49 40.32,19.58 40.56,19.77 C40.78,19.98 40.97,20.22 41.14,20.48 C41.73,21.22 42.7,21.54 43.64,21.65 C43.88,21.67 44.11,21.72 44.34,21.8 C45.04,22.12 45.24,23.15 45.98,23.37 C46.19,23.4 46.4,23.45 46.61,23.51 C46.91,23.64 47.05,23.98 47.14,24.29 C47.3,24.87 47.35,25.49 47.6,26.04 Z M3.25,31.58 L3.26,31.55 C3.38,32.56 4.08,33.39 4.69,34.21 C7.03,37.33 8.31,41.06 9.68,44.73 C9.08,44.27 8.51,43.79 7.96,43.27 C7.34,42.69 6.75,42.09 6.19,41.45 C5.78,40.99 5.39,40.51 5.03,40.02 C4.64,39.51 4.28,38.98 3.93,38.44 C3.64,38 3.38,37.55 3.13,37.1 C2.54,36.05 2.03,34.95 1.6,33.82 C0.64,31.28 0.1,28.6 0.01,25.89 L0.01,25.72 C0.28,25.83 0.54,25.95 0.78,26.11 C1.26,26.39 1.81,26.76 1.84,27.32 C1.83,27.42 1.85,27.51 1.89,27.59 C1.95,27.66 2.03,27.71 2.12,27.71 C2.54,27.81 2.96,27.87 3.39,27.89 C3.39,28.39 3.42,28.92 3.42,29.42 C3.41,30.15 3.17,30.87 3.25,31.58 Z" id="Combined-Shape" fill="#9FBFF9"></path>
                            <path d="M3.42026896,26.9280538 C3.54061197,26.0589412 3.95088747,25.3497986 5.14,25.08 C6.77,24.71 8.93,26.07 9.85,27.3 C10.88,28.68 11.36,30.64 12.94,31.33 C14.07,31.82 15.67,31.65 16.22,32.75 C16.72,33.74 15.86,34.85 15.73,35.95 C15.65,36.67 15.88,37.4 15.94,38.12 C16,38.84 15.78,39.69 15.12,40 C14.75,40.16 14.29,40.14 13.99,40.42 C13.46,40.92 13.9,41.95 13.37,42.45 C13.16,42.6 12.94,42.71 12.7,42.8 C11.52,43.4 11.55,45.14 12.1,46.35 C12.12,46.39 12.13,46.42 12.15,46.46 C11.99,46.38 11.85,46.3 11.7,46.2 C11.48,46.07 11.27,45.94 11.06,45.79 C10.85,45.64 10.65,45.5 10.44,45.35 C10.18,45.16 9.92,44.96 9.67,44.77 C8.3,41.11 7.01,37.37 4.68,34.25 C4.07,33.44 3.37,32.6 3.25,31.59 C3.17,30.87 3.41,30.15 3.42,29.43 C3.42993975,28.9330125 3.39048019,28.4063854 3.39000434,27.9090408 C2.9669749,27.8881297 2.55348745,27.8284494 2.14,27.73 C2.05,27.72 1.97,27.68 1.91,27.61 C1.86,27.52 1.86,27.43 1.86,27.34 C1.83,26.78 1.29,26.41 0.8,26.13 C0.56,25.97 0.3,25.84 0.03,25.74 L0.03,23.97 C0.1,23.91 0.16,23.85 0.22,23.78 C0.47,23.52 0.97,22.44 1.42,22.97 C1.53,23.11 1.53,23.31 1.42,23.46 C1.29,23.64 1.01,23.68 0.9,23.87 C0.77,24.1 0.94,24.37 1.16,24.53 C1.38,24.69 1.64,24.78 1.79,25 C2.08,25.42 1.8,26.05 2.08,26.47 C2.33,26.83 2.84,26.85 3.28,26.9 L3.42026896,26.9280538 Z M32.25,44.21 C32.09,44.21 31.94,44.19 31.78,44.16 C31.3,44.07 30.89,43.76 30.67,43.33 C30.54,42.98 30.47,42.61 30.48,42.24 C30.48,41.99 30.45,41.74 30.4,41.5 C30.28,41.07 30.08,40.67 29.82,40.3 C29.62,40.01 29.45,39.7 29.31,39.38 C29.07,38.78 29.05,38.12 29.04,37.48 L29.04,37.33 C28.91,32.93 27.69,29.36 25.49,27.01 C25.19,26.68 24.85,26.36 24.42,26.25 C23.91,26.12 23.37,26.31 23.04,26.73 C22.96,26.84 22.89,26.95 22.83,27.07 C22.74,27.26 22.62,27.43 22.47,27.58 C22.23,27.79 21.91,27.88 21.59,27.82 C21.13,27.74 20.73,27.46 20.49,27.06 C20.1,26.38 20.17,25.53 20.23,24.86 L20.46,22.13 C20.49,21.71 20.54,21.13 20.88,20.74 C21.14,20.43 21.53,20.29 21.89,20.16 C22.16,20.07 22.42,19.95 22.66,19.79 C23.1,19.46 23.29,18.94 23.5,18.4 C23.61,18.09 23.74,17.79 23.9,17.5 C24.24,16.97 24.84,16.67 25.47,16.73 C25.72,16.75 25.93,16.9 26.05,17.12 C26.32,16.61 26.65,16.31 27.07,16.19 C27.97,15.93 29.08,16.65 30.14,17.34 C31.11,17.97 32.03,18.57 32.75,18.44 C32.93,18.41 33.12,18.35 33.29,18.3 C33.67,18.16 34.07,18.11 34.46,18.14 C35.51,18.29 36.05,19.43 36.39,20.4 L38.1,25.18 C38.31,25.78 38.59,26.43 39.15,26.65 C39.38,26.72 39.62,26.76 39.86,26.75 C40.11,26.75 40.36,26.78 40.6,26.86 C41.02,27.01 41.33,27.38 41.39,27.83 C41.53,28.62 41.14,29.65 40.47,30.23 C40.15,30.49 39.82,30.74 39.47,30.96 C38.7,31.49 37.97,31.98 37.65,32.8 C37.51,33.25 37.43,33.72 37.44,34.2 C37.44,34.71 37.37,35.22 37.2,35.71 C37.01,36.11 36.76,36.47 36.46,36.79 C36.28,36.99 36.12,37.2 35.96,37.42 C35.41,38.24 35.26,39.27 35.12,40.26 L35.06,40.65 C34.89,41.75 34.59,42.98 33.71,43.74 C33.29,44.09 32.77,44.27 32.23,44.27 L32.25,44.21 Z M1.56,17.73 L1.54,17.76 C1.07,18.16 0.88,18.79 0.76,19.38 C0.67,19.92 0.52,20.44 0.31,20.95 C0.42,20.32 0.54,19.7 0.69,19.09 C0.83,18.48 1,17.88 1.2,17.29 C1.75,15.61 2.48,13.99 3.37,12.46 C3.55,12.14 3.75,11.83 3.95,11.51 C4.15,11.19 4.36,10.88 4.58,10.58 C4.64,10.57 4.71,10.56 4.77,10.56 C5.12,10.53 5.53,10.53 5.82,10.39 C6.11,10.25 6.32,9.98 6.59,9.79 C7.28,9.3 8.4,9.21 8.59,8.39 C8.65,8.12 8.58,7.81 8.68,7.55 C8.88,7.05 9.54,6.99 10.07,6.99 C10.29,6.99 10.56,7.03 10.66,7.22 C10.72,7.37 10.71,7.54 10.64,7.68 C10.3,8.61 9.66,9.4 8.82,9.91 C8.13,10.33 7.23,10.66 7.04,11.44 C7.14,11.7 7.62,11.68 7.66,11.96 C7.69,12.18 7.4,12.3 7.3,12.49 C7.15,12.78 7.5,13.14 7.82,13.12 C8.14,13.1 8.42,12.86 8.66,12.64 C9.38,11.97 10.14,11.25 10.4,10.3 C10.51,9.91 10.55,9.45 10.87,9.19 C10.92,9.15 10.98,9.12 11.04,9.1 C11.44,8.95 11.88,9.16 12.03,9.56 C12.35,9.39 12.84,9.26 13,9.58 C13.04,9.7 13.07,9.82 13.07,9.95 C13.17,10.46 13.87,10.69 13.94,11.2 C14.03,11.8 13.27,12.1 12.68,12.19 C12.15,12.27 11.62,12.35 11.08,12.44 C10.84,12.45 10.61,12.53 10.41,12.65 C10.22,12.78 10.13,13.04 10.22,13.27 C10.3,13.37 10.4,13.47 10.5,13.55 C10.94,14 10.58,14.91 9.95,14.93 C9.73,14.94 9.52,14.85 9.31,14.85 C8.67,14.83 8.17,15.39 7.87,15.94 C7.57,16.49 7.35,17.12 6.84,17.51 C6.03,18.12 4.62,17.98 4.23,18.92 C4.08,19.3 4.15,19.73 4.22,20.13 C4.29,20.53 4.32,20.99 4.08,21.32 C3.84,21.65 3.23,21.72 3.06,21.35 C3,21.18 3,20.99 3.04,20.82 C3.14,20.23 3.23,19.64 3.32,19.06 C3.38,18.62 3.45,18.14 3.19,17.78 C2.83,17.28 2.03,17.33 1.56,17.73 Z M22.54,6.13 L22.53,6.15 C22.34,6.39 22.02,6.48 21.72,6.55 L19.83,6.99 C19.55,7.04 19.27,7.14 19.02,7.27 C18.53,7.57 18.26,8.12 17.88,8.56 C17.5,9 16.81,9.31 16.36,8.95 C16.15,8.76 16.03,8.49 16.02,8.21 C15.99,7.8 16.08,7.4 16.29,7.06 C16.51,6.71 16.84,6.43 17.02,6.06 C17.2,5.69 17.16,5.15 16.79,4.98 C16.58,4.88 16.33,4.92 16.15,4.79 C15.83,4.55 16.06,3.99 16.43,3.85 C16.8,3.71 17.22,3.82 17.62,3.85 C19.07,3.94 20.14,2.99 21.23,2.2 C22.07,1.59 23.88,0.86 24.86,1.49 C25.26,1.74 25.41,2.38 25.04,2.66 C24.88,2.79 24.67,2.79 24.49,2.96 C24.31,3.13 24.29,3.4 24.18,3.63 C23.91,4.21 23.11,4.42 22.86,5.02 C22.71,5.37 22.78,5.82 22.54,6.13 Z M49.98,24.67 L50.05,24.65 C50.05,24.76 50.05,24.88 50.05,25 C50.05,25.56 50.03,26.11 50,26.65 C49.73,26.93 49.37,27.09 48.99,27.1 C48.39,27.1 47.89,26.59 47.65,26.04 C47.41,25.49 47.35,24.87 47.19,24.29 C47.1,23.98 46.95,23.65 46.66,23.51 C46.45,23.45 46.24,23.4 46.03,23.37 C45.29,23.15 45.09,22.12 44.39,21.8 C44.17,21.71 43.93,21.66 43.69,21.65 C42.75,21.54 41.77,21.22 41.19,20.48 C41.02,20.23 40.83,19.99 40.61,19.77 C40.36,19.58 39.99,19.5 39.76,19.69 C39.95,20.08 40.15,20.48 40.34,20.87 C40.5,21.24 40.72,21.58 41,21.86 C41.3,22.13 41.74,22.27 42.1,22.1 C42.21,22.02 42.34,21.97 42.47,21.97 C42.57,21.99 42.65,22.04 42.71,22.12 C43.22,22.69 43.04,23.62 42.56,24.2 C42.08,24.78 41.34,25.08 40.63,25.36 C40.39,25.48 40.11,25.53 39.84,25.51 C39.35,25.42 39.09,24.89 38.95,24.41 C38.63,23.35 38.48,22.19 37.82,21.3 C37.61,21.01 37.36,20.79 37.22,20.43 C37.08,20.08 37.12,19.68 36.9,19.35 C36.68,19.02 36.21,18.83 36.18,18.44 C36.19,18.15 36.37,17.9 36.64,17.8 C36.89,17.68 37.18,17.65 37.44,17.54 C37.54,17.5 37.66,17.42 37.66,17.31 C37.66,17.14 37.43,17.1 37.37,16.92 C37.31,16.74 37.48,16.58 37.56,16.41 C37.73,16.02 37.32,15.63 36.93,15.47 C36.54,15.31 36.07,15.21 35.89,14.82 C35.82,14.63 35.78,14.44 35.76,14.25 C35.66,13.77 35.32,13.31 34.83,13.23 C34.34,13.15 33.8,13.59 33.88,14.07 C33.92,14.33 34.12,14.53 34.23,14.78 C34.34,15.03 34.31,15.39 34.05,15.47 C33.64,15.6 33.24,14.84 32.89,15.1 C33.03,15.58 33.17,16.07 33.31,16.56 C32.77,16.83 32.12,16.33 31.88,15.76 C31.64,15.19 31.64,14.56 31.36,14 C31.08,13.44 30.34,13.03 29.86,13.42 C29.84,14.12 30.77,14.41 31.18,14.98 C31.47,15.39 31.43,16.06 30.99,16.32 C30.55,16.58 29.85,16.13 30.02,15.65 C30.08,15.49 30.21,15.35 30.23,15.17 C30.25,14.95 30.06,14.77 29.89,14.63 C29.62,14.4 29.35,14.18 29.09,13.96 C28.94,13.8 28.75,13.68 28.54,13.6 C28,13.44 27.45,13.88 27.16,14.37 C26.87,14.86 26.71,15.43 26.31,15.84 C25.74,16.42 24.65,16.46 24.11,15.84 C23.57,15.22 23.84,14.06 24.64,13.83 C24.94,13.75 25.32,13.75 25.48,13.49 C25.76,13.02 24.97,12.42 25.24,11.94 C25.44,11.58 26,11.75 26.4,11.62 C26.8,11.49 27.02,11.08 27.26,10.74 C27.5,10.4 27.86,10.05 28.27,10.14 C28.21,9.9 28.23,9.65 28.31,9.42 C28.41,9.2 28.72,9.06 28.91,9.2 C28.71,9.54 28.94,10.01 29.3,10.17 C29.66,10.33 30.07,10.3 30.46,10.25 C30.85,10.2 31.34,10.06 31.37,9.67 C31.38,9.53 31.33,9.4 31.38,9.28 C31.55,8.83 32.4,9.46 32.73,9.09 C32.92,8.9 32.7,8.56 32.44,8.49 C32.18,8.42 31.91,8.52 31.64,8.53 C31.37,8.54 31.04,8.4 31.03,8.13 C31.02,7.86 31.32,7.67 31.35,7.41 C31.4,6.97 30.64,6.86 30.38,7.22 C30.12,7.58 30.2,8.07 30.29,8.51 C30.38,8.95 30.41,9.47 30.09,9.78 C29.95,9.99 29.59,9.88 29.47,9.66 C29.35,9.44 29.36,9.17 29.35,8.92 C29.34,8.67 29.23,8.39 28.98,8.32 C28.8,8.31 28.62,8.33 28.45,8.38 C27.76,8.47 27.29,7.58 27.5,6.92 C27.71,6.26 28.34,5.84 28.94,5.5 C29.38,5.25 29.93,5.02 30.37,5.27 C30.57,5.38 30.72,5.58 30.92,5.7 C31.27,5.91 31.7,5.84 32.1,5.84 C32.73,5.86 33.34,6.1 33.82,6.51 C33.99,6.67 34.17,6.92 34.02,7.13 C33.87,7.34 33.43,7.38 33.51,7.62 C33.54,7.63 33.57,7.64 33.6,7.64 C34.06,7.71 34.5,7.4 34.58,6.93 C34.82,7.04 34.97,7.26 35,7.51 C35.02,7.49 35.05,7.46 35.08,7.44 C35.64,7 36.45,7.1 36.88,7.66 C36.97,7.83 37.09,7.98 37.23,8.11 C37.38,8.22 37.66,8.17 37.68,7.98 C37.68,7.92 37.67,7.86 37.65,7.8 C37.55,7.53 37.45,7.26 37.36,7 C37.73,6.8 38.16,7.11 38.41,7.44 C39.34,8.68 40.01,7.95 41.31,8.14 C42.19,8.28 42.58,8.84 43.08,9.53 C44.6,11.63 46.62,13.36 48.01,15.56 C48.16,15.79 48.29,16.02 48.42,16.26 C48.54,16.59 48.65,16.91 48.76,17.23 C48.87,17.55 48.97,17.87 49.06,18.2 C49.3,19.06 49.49,19.92 49.64,20.8 C49.69,21.1 49.73,21.41 49.77,21.69 C49.81,21.97 49.84,22.25 49.87,22.54 C49.9,22.89 49.93,23.25 49.95,23.6 C49.97,23.95 49.98,24.31 49.98,24.67 Z M39.86,35.04 L39.86,35.03 C41.48,34.71 42.22,38.1 40.51,38.36 C40.1,38.42 39.64,38.22 39.33,38.49 C39.15,38.65 39.11,38.9 39.04,39.13 C38.95,39.45 38.74,39.72 38.46,39.9 C38.17,40.08 37.81,40.07 37.53,39.88 C37.25,39.68 37.2,39.29 37.4,39.01 C37.51,38.91 37.63,38.82 37.75,38.73 C38.29,38.24 37.92,37.29 38.33,36.69 C38.57,36.34 38.95,35.98 39.21,35.62 C39.41,35.33 39.49,35.11 39.86,35.04 Z" id="Combined-Shape" fill="#B6ED8B"></path>
                        </g>
                    </g>
                </g>
            </g>
        </g>
    </g>
</svg>